<?xml version="1.0" standalone="no"?>
<!DOCTYPE svg PUBLIC "-//W3C//DTD SVG 20010904//EN"
 "http://www.w3.org/TR/2001/REC-SVG-20010904/DTD/svg10.dtd">
<svg version="1.0" xmlns="http://www.w3.org/2000/svg" aria-hidden="true" role="img"
 width="32.000000pt" height="32.000000pt" viewBox="0 0 32.000000 32.000000"
 preserveAspectRatio="xMidYMid meet">

<g transform="translate(0.000000,32.000000) scale(0.100000,-0.100000)"
fill="#BF283B" stroke="none">
<path d="M0 160 l0 -160 160 0 160 0 0 160 0 160 -160 0 -160 0 0 -160z m174
114 c4 -14 22 -48 41 -76 43 -62 46 -104 9 -142 -57 -56 -154 -17 -154 61 0
26 8 42 30 63 19 18 30 38 30 55 0 29 16 65 29 65 5 0 12 -12 15 -26z"/>
<path d="M150 202 c0 -56 -7 -82 -22 -82 -6 0 -7 11 -4 25 9 35 -9 31 -24 -5
-10 -25 -10 -34 4 -55 22 -33 59 -42 91 -21 43 28 42 59 -4 128 l-41 61 0 -51z"/>
</g>
</svg>